<svg width="32" height="32" viewBox="0 0 32 32" fill="none" xmlns="http://www.w3.org/2000/svg">
  <!-- Rounded background with gradient -->
  <rect width="32" height="32" rx="6" fill="url(#gradient)"/>
  
  <!-- Main location pin -->
  <path d="M16 4C12.69 4 10 6.69 10 10C10 15 16 24 16 24S22 15 22 10C22 6.69 19.31 4 16 4ZM16 12.5C14.62 12.5 13.5 11.38 13.5 10S14.62 7.5 16 7.5S18.5 8.62 18.5 10S17.38 12.5 16 12.5Z" fill="white"/>
  
  <!-- Store building icon in bottom right -->
  <circle cx="24" cy="24" r="4" fill="white"/>
  <rect x="22" y="22" width="4" height="3" rx="0.5" fill="#2563EB"/>
  <rect x="22.5" y="22.5" width="1" height="1" fill="white"/>
  <rect x="24.5" y="22.5" width="1" height="1" fill="white"/>
  <rect x="23.5" y="24" width="1" height="1" fill="white"/>
  
  <!-- Gradient definition -->
  <defs>
    <linearGradient id="gradient" x1="0%" y1="0%" x2="100%" y2="100%">
      <stop offset="0%" style="stop-color:#2563EB;stop-opacity:1" />
      <stop offset="100%" style="stop-color:#1E40AF;stop-opacity:1" />
    </linearGradient>
  </defs>
</svg>